<svg width="37" height="37" viewBox="0 0 37 37" fill="none" xmlns="http://www.w3.org/2000/svg">
<path d="M18.375 10.0625C18.375 14.7224 14.5974 18.5 9.9375 18.5H1.5V10.0625C1.5 5.40259 5.27759 1.625 9.9375 1.625C14.5974 1.625 18.375 5.40259 18.375 10.0625Z" fill="#762BEB"/>
<path d="M18.375 26.9375C18.375 22.2776 22.1526 18.5 26.8125 18.5H35.25V26.9375C35.25 31.5974 31.4724 35.375 26.8125 35.375C22.1526 35.375 18.375 31.5974 18.375 26.9375Z" fill="#762BEB"/>
<path d="M1.5 26.9375C1.5 31.5974 5.27759 35.375 9.9375 35.375H18.375V26.9375C18.375 22.2776 14.5974 18.5 9.9375 18.5C5.27759 18.5 1.5 22.2776 1.5 26.9375Z" fill="#762BEB"/>
<path d="M35.25 10.0625C35.25 5.40259 31.4724 1.625 26.8125 1.625H18.375V10.0625C18.375 14.7224 22.1526 18.5 26.8125 18.5C31.4724 18.5 35.25 14.7224 35.25 10.0625Z" fill="#762BEB"/>
</svg>
