<svg width="80" height="81" viewBox="0 0 80 81" fill="none" xmlns="http://www.w3.org/2000/svg">
<rect y="0.625" width="80" height="80" rx="40" fill="#0B0A2F"/>
<path opacity="0.4" d="M37.4833 24.3417L29.1667 27.4583C27.25 28.175 25.6833 30.4417 25.6833 32.4917V44.875C25.6833 46.8417 26.9834 49.425 28.5667 50.6083L35.7333 55.9583C38.0833 57.725 41.95 57.725 44.3 55.9583L51.4667 50.6083C53.05 49.425 54.35 46.8417 54.35 44.875V32.4917C54.35 30.4417 52.7833 28.175 50.8667 27.4583L42.55 24.3417C41.1333 23.825 38.8667 23.825 37.4833 24.3417Z" fill="white"/>
<path d="M39.8333 39.4583C39.8666 39.4583 39.8999 39.4583 39.9332 39.4583H39.9666H39.9999C41.9166 39.3917 43.4166 37.8417 43.4333 35.9083C43.4333 33.9417 41.8333 32.3417 39.8666 32.3417C37.9 32.3417 36.2999 33.9417 36.2999 35.9083C36.3333 37.825 37.8333 39.3917 39.8333 39.4583Z" fill="white"/>
<path d="M43.65 42.975C41.6333 41.6416 38.3666 41.6416 36.3333 42.975C35.3999 43.6083 34.85 44.5083 34.85 45.4416C34.85 46.3916 35.3833 47.2583 36.3333 47.8916C37.3499 48.5583 38.6666 48.9083 39.9833 48.9083C41.3 48.9083 42.6333 48.575 43.6333 47.8916C44.5666 47.2583 45.1166 46.3583 45.1166 45.425C45.1333 44.475 44.6 43.6083 43.65 42.975Z" fill="white"/>
</svg>
