<svg width="80" height="81" viewBox="0 0 80 81" fill="none" xmlns="http://www.w3.org/2000/svg">
<rect y="0.625" width="80" height="80" rx="40" fill="#0B0A2F"/>
<path opacity="0.4" d="M56.6667 33.6416V36.475C56.6667 37.7583 55.3 38.525 54.1667 37.925C51.7167 36.6083 48.7667 36.0916 45.6667 36.7416C43.6667 37.1583 41.8167 38.0916 40.3 39.375C39.4334 40.0916 38.6667 40.9416 38.0167 41.875C37.1167 43.1916 36.4501 44.6916 36.1167 46.2916C35.4667 49.3916 35.9834 52.3416 37.3 54.7916C37.9 55.925 37.1334 57.2916 35.8501 57.2916H33.0167C27.6667 57.2916 23.3334 52.9583 23.3334 47.6083V33.6416C23.3334 28.2916 27.6667 23.9583 33.0167 23.9583H46.9834C52.3334 23.9583 56.6667 28.2916 56.6667 33.6416Z" fill="white"/>
<path d="M40.3 39.375C39.4334 40.0917 38.6667 40.9417 38.0167 41.875H23.3334V39.375H40.3Z" fill="white"/>
<path d="M30 35.625C29.3167 35.625 28.75 35.0584 28.75 34.375V31.0417C28.75 30.3584 29.3167 29.7917 30 29.7917C30.6833 29.7917 31.25 30.3584 31.25 31.0417V34.375C31.25 35.0584 30.6833 35.625 30 35.625Z" fill="white"/>
<path d="M36.6666 35.625C35.9833 35.625 35.4166 35.0584 35.4166 34.375V31.0417C35.4166 30.3584 35.9833 29.7917 36.6666 29.7917C37.35 29.7917 37.9166 30.3584 37.9166 31.0417V34.375C37.9166 35.0584 37.35 35.625 36.6666 35.625Z" fill="white"/>
<path d="M30 51.875C29.3167 51.875 28.75 51.3084 28.75 50.625V47.2917C28.75 46.6084 29.3167 46.0417 30 46.0417C30.6833 46.0417 31.25 46.6084 31.25 47.2917V50.625C31.25 51.3084 30.6833 51.875 30 51.875Z" fill="white"/>
<path d="M50 33.9583H43.3334C42.65 33.9583 42.0834 33.3916 42.0834 32.7083C42.0834 32.025 42.65 31.4583 43.3334 31.4583H50C50.6834 31.4583 51.25 32.025 51.25 32.7083C51.25 33.3916 50.6834 33.9583 50 33.9583Z" fill="white"/>
<path d="M48.3334 38.9583C42.8167 38.9583 38.3334 43.4416 38.3334 48.9583C38.3334 54.475 42.8167 58.9583 48.3334 58.9583C53.85 58.9583 58.3334 54.475 58.3334 48.9583C58.3334 43.4416 53.85 38.9583 48.3334 38.9583ZM53.2167 50.9583C52.95 51.6083 52.5667 52.1916 52.0667 52.6916C51.0667 53.6916 49.75 54.2416 48.3334 54.2416C47.2 54.2416 46.1334 53.875 45.2334 53.2083V53.4416C45.2334 53.9583 44.8167 54.3916 44.2834 54.3916C43.7667 54.3916 43.3334 53.975 43.3334 53.4416V51.0416C43.3334 50.525 43.7501 50.0916 44.2834 50.0916H46.6834C47.2001 50.0916 47.6334 50.5083 47.6334 51.0416C47.6334 51.525 47.2834 51.8916 46.8167 51.9583C48.0834 52.575 49.7 52.375 50.7167 51.3583C51.0334 51.0416 51.2834 50.6583 51.45 50.2416C51.65 49.7583 52.2 49.525 52.6833 49.725C53.1833 49.9083 53.4167 50.475 53.2167 50.9583ZM53.3334 46.8916C53.3334 47.4083 52.9167 47.8416 52.3834 47.8416H49.9834C49.4667 47.8416 49.0334 47.425 49.0334 46.8916C49.0334 46.4083 49.3834 46.0416 49.85 45.975C48.5834 45.3583 46.9667 45.5583 45.9334 46.575C45.65 46.8583 45.4334 47.175 45.2667 47.525C45.1 47.875 44.7667 48.075 44.4167 48.075C44.2834 48.075 44.15 48.0416 44.0167 47.9916C43.55 47.775 43.3334 47.2083 43.5667 46.725C43.8334 46.175 44.1834 45.675 44.6001 45.2416C45.6001 44.2416 46.9167 43.6916 48.3334 43.6916C49.4667 43.6916 50.5333 44.0583 51.4333 44.725V44.5083C51.4333 43.9916 51.85 43.5583 52.3834 43.5583C52.9167 43.5583 53.3334 43.9583 53.3334 44.4916V46.8916Z" fill="white"/>
</svg>
