<svg width="80" height="81" viewBox="0 0 80 81" fill="none" xmlns="http://www.w3.org/2000/svg">
<rect y="0.625" width="80" height="80" rx="40" fill="#0B0A2F"/>
<path opacity="0.6" d="M36.85 27.2916C36.7167 27.7916 36.6667 28.3416 36.6667 28.9583V33.9583H28.3334V30.625C28.3334 28.7916 29.8334 27.2916 31.6667 27.2916H36.85Z" fill="white"/>
<path d="M36.6667 52.2917V33.9584H28.3334C25 33.9584 23.3334 35.625 23.3334 38.9584V52.2917C23.3334 55.625 25 57.2917 28.3334 57.2917H41.6667C38.3334 57.2917 36.6667 55.625 36.6667 52.2917ZM31.25 48.9584C31.25 49.6417 30.6834 50.2084 30 50.2084C29.3167 50.2084 28.75 49.6417 28.75 48.9584V42.2917C28.75 41.6084 29.3167 41.0417 30 41.0417C30.6834 41.0417 31.25 41.6084 31.25 42.2917V48.9584Z" fill="white"/>
<path opacity="0.4" d="M43.3333 57.2917H41.6666C38.3333 57.2917 36.6666 55.625 36.6666 52.2917V28.9584C36.6666 25.625 38.3333 23.9584 41.6666 23.9584H51.6666C55 23.9584 56.6666 25.625 56.6666 28.9584V52.2917C56.6666 55.625 55 57.2917 51.6666 57.2917H50" fill="white"/>
<path d="M50 50.625V57.2917H43.3334V50.625C43.3334 49.7084 44.0834 48.9584 45 48.9584H48.3334C49.25 48.9584 50 49.7084 50 50.625Z" fill="white"/>
<path d="M43.3334 43.5417C42.65 43.5417 42.0834 42.975 42.0834 42.2917V33.9584C42.0834 33.275 42.65 32.7084 43.3334 32.7084C44.0167 32.7084 44.5834 33.275 44.5834 33.9584V42.2917C44.5834 42.975 44.0167 43.5417 43.3334 43.5417Z" fill="white"/>
<path d="M50 43.5417C49.3167 43.5417 48.75 42.975 48.75 42.2917V33.9584C48.75 33.275 49.3167 32.7084 50 32.7084C50.6833 32.7084 51.25 33.275 51.25 33.9584V42.2917C51.25 42.975 50.6833 43.5417 50 43.5417Z" fill="white"/>
</svg>
