<svg width="30" height="30" viewBox="0 0 30 30" fill="none" xmlns="http://www.w3.org/2000/svg">
<path d="M15 27.5C21.9036 27.5 27.5 21.9036 27.5 15C27.5 8.09644 21.9036 2.5 15 2.5C8.09644 2.5 2.5 8.09644 2.5 15C2.5 21.9036 8.09644 27.5 15 27.5Z" fill="#0B0A2F"/>
<path d="M13.225 19.475C12.975 19.475 12.7375 19.375 12.5625 19.2L9.02505 15.6625C8.66255 15.3 8.66255 14.7 9.02505 14.3375C9.38755 13.975 9.98755 13.975 10.35 14.3375L13.225 17.2125L19.65 10.7875C20.0125 10.425 20.6125 10.425 20.975 10.7875C21.3376 11.15 21.3376 11.75 20.975 12.1125L13.8875 19.2C13.7125 19.375 13.475 19.475 13.225 19.475Z" fill="white"/>
</svg>
