<svg width="50" height="51" viewBox="0 0 50 51" fill="none" xmlns="http://www.w3.org/2000/svg">
<g clip-path="url(#clip0_2008_153)">
<path d="M16.6034 50.5C21.2384 50.5 25.0001 46.7667 25.0001 42.1667V33.8334H16.6034C11.9684 33.8334 8.2066 37.5667 8.2066 42.1667C8.2066 46.7667 11.9684 50.5 16.6034 50.5Z" fill="#0ACF83"/>
<path d="M8.2066 25.5C8.2066 20.9 11.9684 17.1666 16.6034 17.1666H25.0001V33.8333H16.6034C11.9684 33.8333 8.2066 30.1 8.2066 25.5Z" fill="#A259FF"/>
<path d="M8.20673 8.83333C8.20673 4.23333 11.9685 0.5 16.6035 0.5H25.0002V17.1667H16.6035C11.9685 17.1667 8.20673 13.4333 8.20673 8.83333Z" fill="#F24E1E"/>
<path d="M25 0.5H33.3968C38.0318 0.5 41.7935 4.23333 41.7935 8.83333C41.7935 13.4333 38.0318 17.1667 33.3968 17.1667H25V0.5Z" fill="#FF7262"/>
<path d="M41.7935 25.5C41.7935 30.1 38.0318 33.8333 33.3968 33.8333C28.7617 33.8333 25 30.1 25 25.5C25 20.9 28.7617 17.1666 33.3968 17.1666C38.0318 17.1666 41.7935 20.9 41.7935 25.5Z" fill="#1ABCFE"/>
</g>
<defs>
<clipPath id="clip0_2008_153">
<rect width="50" height="50" fill="white" transform="translate(0 0.5)"/>
</clipPath>
</defs>
</svg>
