<svg width="50" height="51" viewBox="0 0 50 51" fill="none" xmlns="http://www.w3.org/2000/svg">
<g clip-path="url(#clip0_1_605)">
<path d="M30.734 18.5598L25.7336 23.2156L21.0919 13.8493L23.4898 8.46374C24.0958 7.38947 25.087 7.37528 25.693 8.46374L30.734 18.5598Z" fill="#FFA000"/>
<path d="M25.7356 23.2136L7.03125 40.6106L21.094 13.8492L25.7356 23.2136Z" fill="#F57F17"/>
<path d="M36.2168 11.4393C37.1127 10.586 38.035 10.8738 38.2681 12.0859L43.1306 40.3756L27.0025 50.0582C26.437 50.3744 24.937 50.498 24.937 50.498C24.937 50.498 23.5729 50.3318 23.05 50.044L7.03125 40.6107L36.2168 11.4393Z" fill="#FFCA28"/>
<path d="M21.094 13.8492L7.03125 40.6106L13.2985 1.49517C13.5336 0.283075 14.2207 0.159434 14.841 1.2337L21.094 13.8492Z" fill="#FFA000"/>
</g>
<defs>
<clipPath id="clip0_1_605">
<rect width="50" height="50" fill="white" transform="translate(0 0.5)"/>
</clipPath>
</defs>
</svg>
