<svg width="50" height="51" viewBox="0 0 50 51" fill="none" xmlns="http://www.w3.org/2000/svg">
<g clip-path="url(#clip0_2008_172)">
<rect width="50" height="50" transform="translate(0 0.5)" fill="white"/>
<path d="M45.4674 0.5H4.53262C2.0293 0.5 0 2.5293 0 5.03262V45.9674C0 48.4707 2.0293 50.5 4.53262 50.5H45.4674C47.9707 50.5 50 48.4707 50 45.9674V5.03262C50 2.5293 47.9707 0.5 45.4674 0.5Z" fill="#DC395F"/>
<path d="M16.7099 16.2313C18.3721 16.2313 19.7644 14.9286 19.7644 13.2212C19.7644 11.5149 18.3721 10.2124 16.7099 10.2124C15.0478 10.2124 13.6558 11.5149 13.6558 13.2212C13.6558 14.9284 15.0478 16.2313 16.7099 16.2313ZM10.3767 32.3485C10.1973 33.1122 10.1072 33.9368 10.1072 34.6095C10.1072 37.2601 11.5445 39.0196 14.599 39.0196C17.1322 39.0196 19.1859 37.5153 20.6646 35.0862L19.7617 38.7099H24.792L27.667 27.1788C28.3857 24.2593 29.7781 22.7438 31.8894 22.7438C33.5514 22.7438 34.5844 23.7774 34.5844 25.4837C34.5844 25.978 34.5394 26.5165 34.3598 27.1007L32.8773 32.4009C32.6527 33.1645 32.5633 33.9286 32.5633 34.6468C32.5633 37.163 34.0451 39.0034 37.1445 39.0034C39.7947 39.0034 41.9057 37.2974 43.0736 33.2097L41.0974 32.4468C40.1092 35.1853 39.2557 35.6804 38.5818 35.6804C37.908 35.6804 37.5486 35.2315 37.5486 34.3337C37.5486 33.9294 37.6389 33.4808 37.7732 32.9405L39.2109 27.7769C39.5701 26.5644 39.7051 25.4892 39.7051 24.5013C39.7051 20.6384 37.3691 18.6224 34.5394 18.6224C31.8894 18.6224 29.1941 21.0128 27.8469 23.5286L28.8348 19.013H21.1543L20.0762 22.9903H23.6697L21.4568 31.8497C19.7191 35.7126 16.5271 35.7753 16.1266 35.6856C15.4687 35.5372 15.048 35.2874 15.048 34.4327C15.048 33.9395 15.1379 33.2312 15.3625 32.3771L18.7316 19.013H10.1973L9.11913 22.9903H12.6674L10.3767 32.3485Z" fill="white"/>
</g>
<defs>
<clipPath id="clip0_2008_172">
<rect width="50" height="50" fill="white" transform="translate(0 0.5)"/>
</clipPath>
</defs>
</svg>
